<svg width="24" height="24" viewBox="0 0 24 24" fill="none" xmlns="http://www.w3.org/2000/svg">
<path d="M12 21.9989C6.477 21.9989 2 17.5219 2 11.9989C2 6.4759 6.477 1.9989 12 1.9989C17.523 1.9989 22 6.4759 22 11.9989C22 17.5219 17.523 21.9989 12 21.9989ZM7.013 18.2549C8.42855 19.3866 10.1877 20.0018 12 19.9989C13.97 19.9989 15.773 19.2869 17.167 18.1069C16.5157 17.4386 15.7371 16.9078 14.877 16.5457C14.017 16.1836 13.0931 15.9977 12.16 15.9989C11.1926 15.9978 10.2355 16.1978 9.34947 16.5861C8.46343 16.9745 7.66778 17.5428 7.013 18.2549ZM5.616 16.8189C6.45645 15.927 7.47067 15.2166 8.59614 14.7316C9.72161 14.2466 10.9345 13.9973 12.16 13.9989C13.3417 13.9974 14.512 14.2293 15.6037 14.6813C16.6955 15.1333 17.6873 15.7965 18.522 16.6329C19.3781 15.428 19.8836 14.0095 19.9826 12.5348C20.0815 11.0601 19.77 9.58679 19.0825 8.27836C18.395 6.96993 17.3585 5.87752 16.088 5.12235C14.8174 4.36717 13.3625 3.97874 11.8846 4.00015C10.4067 4.02157 8.96366 4.45199 7.71552 5.24366C6.46738 6.03533 5.46296 7.1573 4.81369 8.4851C4.16442 9.8129 3.89569 11.2946 4.03732 12.7659C4.17894 14.2371 4.72537 15.6403 5.616 16.8199V16.8189ZM12 12.9989C10.9391 12.9989 9.92172 12.5775 9.17157 11.8273C8.42143 11.0772 8 10.0598 8 8.9989C8 7.93804 8.42143 6.92062 9.17157 6.17047C9.92172 5.42033 10.9391 4.9989 12 4.9989C13.0609 4.9989 14.0783 5.42033 14.8284 6.17047C15.5786 6.92062 16 7.93804 16 8.9989C16 10.0598 15.5786 11.0772 14.8284 11.8273C14.0783 12.5775 13.0609 12.9989 12 12.9989ZM12 10.9989C12.5304 10.9989 13.0391 10.7882 13.4142 10.4131C13.7893 10.038 14 9.52934 14 8.9989C14 8.46847 13.7893 7.95976 13.4142 7.58469C13.0391 7.20962 12.5304 6.9989 12 6.9989C11.4696 6.9989 10.9609 7.20962 10.5858 7.58469C10.2107 7.95976 10 8.46847 10 8.9989C10 9.52934 10.2107 10.038 10.5858 10.4131C10.9609 10.7882 11.4696 10.9989 12 10.9989Z" fill="black"/>
</svg>
