<svg width="20" height="20" viewBox="0 0 20 20" fill="none" xmlns="http://www.w3.org/2000/svg">
<g id="heart">
<path id="Vector" d="M16.25 10.4767L10 16.6667L3.75 10.4767C3.33775 10.0755 3.01303 9.59334 2.79629 9.06052C2.57954 8.52771 2.47546 7.95579 2.49061 7.38077C2.50576 6.80576 2.6398 6.24011 2.88429 5.71944C3.12879 5.19878 3.47844 4.73437 3.91124 4.35548C4.34403 3.97658 4.85058 3.6914 5.39901 3.5179C5.94743 3.34439 6.52583 3.28631 7.0978 3.34733C7.66977 3.40834 8.22291 3.58713 8.72239 3.87242C9.22187 4.15771 9.65687 4.54333 10 5.00499C10.3446 4.54668 10.7801 4.16443 11.2792 3.88217C11.7784 3.5999 12.3304 3.4237 12.9008 3.36459C13.4711 3.30549 14.0476 3.36474 14.594 3.53865C15.1404 3.71257 15.645 3.99739 16.0763 4.3753C16.5076 4.75321 16.8562 5.21607 17.1003 5.73491C17.3445 6.25375 17.4789 6.8174 17.4953 7.39059C17.5116 7.96377 17.4094 8.53416 17.1951 9.06604C16.9808 9.59792 16.6591 10.0798 16.25 10.4817" stroke="white" stroke-width="1.83333" stroke-linecap="round" stroke-linejoin="round"/>
</g>
</svg>
