<svg width="18" height="18" viewBox="0 0 18 18" fill="none" xmlns="http://www.w3.org/2000/svg">
<circle cx="9.1111" cy="4.14815" r="4.14815" fill="#000000"/>
<path d="M2 16V14.2222C2 13.2793 2.3746 12.3749 3.0414 11.7081C3.70819 11.0413 4.61256 10.6667 5.55556 10.6667H12.6667C13.6097 10.6667 14.514 11.0413 15.1808 11.7081C15.8476 12.3749 16.2222 13.2793 16.2222 14.2222V16" fill="#000000"/>
<path d="M2 16V14.2222C2 13.2793 2.3746 12.3749 3.0414 11.7081C3.70819 11.0413 4.61256 10.6667 5.55556 10.6667H12.6667C13.6097 10.6667 14.514 11.0413 15.1808 11.7081C15.8476 12.3749 16.2222 13.2793 16.2222 14.2222V16H2Z" stroke="#000000" stroke-width="2.37037" stroke-linecap="round" stroke-linejoin="round"/>
</svg>
