<svg width="17" height="16" viewBox="0 0 17 16" fill="none" xmlns="http://www.w3.org/2000/svg">
<g clip-path="url(#clip0_68_265)">
<path d="M11.068 5.3285e-05H5.9C4.46848 0.00216935 3.0962 0.571774 2.08396 1.58401C1.07172 2.59624 0.502116 3.96852 0.5 5.40004V10.6C0.502116 12.0315 1.07172 13.4038 2.08396 14.416C3.0962 15.4283 4.46848 15.9979 5.9 16H11.1C12.5315 15.9979 13.9038 15.4283 14.916 14.416C15.9283 13.4038 16.4979 12.0315 16.5 10.6V5.40004C16.499 4.6885 16.3575 3.98416 16.0838 3.32739C15.81 2.67062 15.4093 2.07433 14.9047 1.57268C14.4001 1.07104 13.8015 0.673904 13.1431 0.404042C12.4847 0.13418 11.7795 -0.00310519 11.068 5.3285e-05ZM12.964 5.93603L11.004 8.90402C10.7987 9.20694 10.4841 9.41862 10.1262 9.49468C9.76823 9.57074 9.39474 9.50528 9.084 9.31202L7.172 8.10403C7.15072 8.09404 7.12751 8.08886 7.104 8.08886C7.08049 8.08886 7.05728 8.09404 7.036 8.10403C6.98548 8.11012 6.93944 8.13601 6.908 8.17603L4.948 10.768C4.85364 10.8842 4.71927 10.9609 4.57126 10.9831C4.42325 11.0053 4.27229 10.9714 4.148 10.888C4.03182 10.7937 3.95511 10.6593 3.93291 10.5113C3.9107 10.3633 3.94462 10.2123 4.028 10.088L5.988 7.48003C6.19898 7.19942 6.50768 7.00832 6.85293 6.9446C7.19817 6.88089 7.55476 6.94921 7.852 7.13603L9.764 8.34403C9.78755 8.35597 9.81359 8.3622 9.84 8.3622C9.86641 8.3622 9.89245 8.35597 9.916 8.34403C9.94036 8.33946 9.96354 8.33002 9.98416 8.31627C10.0048 8.30253 10.0224 8.28475 10.036 8.26403L12.004 5.29604C12.0921 5.16343 12.2292 5.07123 12.3852 5.03972C12.5412 5.00822 12.7034 5.03998 12.836 5.12804C12.9686 5.21609 13.0608 5.35321 13.0923 5.50924C13.1238 5.66527 13.0921 5.82743 13.004 5.96003L12.964 5.93603Z" fill="#9F9F9F"/>
</g>
<defs>
<clipPath id="clip0_68_265">
<rect width="16" height="16" fill="white" transform="translate(0.5)"/>
</clipPath>
</defs>
</svg>
